<svg width="95" height="93" viewBox="0 0 95 93" fill="none" xmlns="http://www.w3.org/2000/svg">
<path d="M9.13462 18.5529C9.13462 16.4533 9.47688 15.0135 10.9615 13.5288C12.4462 12.0442 13.7337 12.1937 15.8333 12.1937L78.5577 12.1937C80.6573 12.1937 82.5538 12.0442 84.0385 13.5288C85.5231 15.0135 85.8654 16.4533 85.8654 18.5529V62.399C85.8654 64.4987 85.5231 65.4466 84.0385 66.9313C82.5538 68.4159 81.2663 68.3365 79.1667 68.3365H51.4583V77.1667H63.3333C64.3832 77.1667 65.39 77.5837 66.1323 78.326C66.8746 79.0684 67.1394 79.6185 67.1394 80.6683C67.1394 81.7181 66.9683 82.2096 66.226 82.9519C65.4836 83.6943 64.3832 83.924 63.3333 83.924H31.6667C30.6169 83.924 29.5164 84.151 28.774 83.4087C28.0317 82.6663 27.7083 82.1748 27.7083 81.125C27.7083 80.0752 28.1254 79.0684 28.8677 78.326C29.61 77.5837 30.6169 77.1667 31.6667 77.1667H43.5417V68.3365H15.8333C13.7337 68.3365 12.4462 68.4159 10.9615 66.9313C9.47688 65.4466 9.13461 64.4987 9.13461 62.399L9.13462 18.5529ZM80.3846 62.8558V17.1827H15.5288V62.8558H80.3846Z" fill="white"/>
<path d="M58.0695 36.192L57.7005 37.041C57.6428 37.1792 57.5455 37.2973 57.4209 37.3804C57.2962 37.4635 57.1498 37.5078 57 37.5078C56.8502 37.5078 56.7038 37.4635 56.5791 37.3804C56.4545 37.2973 56.3572 37.1792 56.2995 37.041L55.9305 36.192C55.2817 34.6901 54.0936 33.4859 52.6005 32.817L51.462 32.3085C51.3239 32.245 51.2069 32.1432 51.1249 32.0151C51.0428 31.8871 50.9992 31.7383 50.9992 31.5863C50.9992 31.4342 51.0428 31.2854 51.1249 31.1574C51.2069 31.0293 51.3239 30.9275 51.462 30.864L52.5375 30.3855C54.0681 29.6976 55.2766 28.4488 55.914 26.8965L56.2935 25.98C56.3492 25.838 56.4465 25.7161 56.5725 25.6302C56.6985 25.5443 56.8475 25.4984 57 25.4984C57.1525 25.4984 57.3015 25.5443 57.4275 25.6302C57.5535 25.7161 57.6508 25.838 57.7065 25.98L58.086 26.895C58.7227 28.4476 59.9307 29.6969 61.461 30.3855L62.538 30.8655C62.6757 30.9292 62.7923 31.031 62.874 31.1589C62.9557 31.2867 62.9991 31.4353 62.9991 31.587C62.9991 31.7387 62.9557 31.8873 62.874 32.0151C62.7923 32.143 62.6757 32.2448 62.538 32.3085L61.398 32.8155C59.9052 33.485 58.7176 34.6898 58.0695 36.192ZM40.5 28.5H48V33H43.5V49.5C43.4997 50.8207 43.0636 52.1045 42.2594 53.1522C41.4552 54.1998 40.3277 54.9529 39.0519 55.2945C37.7761 55.6361 36.4233 55.5472 35.2031 55.0416C33.983 54.536 32.9638 53.6419 32.3035 52.4981C31.6433 51.3542 31.3789 50.0244 31.5514 48.715C31.7239 47.4056 32.3236 46.1896 33.2576 45.2558C34.1916 44.3219 35.4076 43.7223 36.717 43.55C38.0265 43.3776 39.3562 43.6421 40.5 44.3025V28.5ZM57 44.3025V40.5H60V49.5C59.9997 50.8207 59.5636 52.1045 58.7594 53.1522C57.9552 54.1998 56.8277 54.9529 55.5519 55.2945C54.2761 55.6361 52.9233 55.5472 51.7031 55.0416C50.483 54.536 49.4638 53.6419 48.8035 52.4981C48.1433 51.3542 47.8789 50.0244 48.0514 48.715C48.2239 47.4056 48.8236 46.1896 49.7576 45.2558C50.6916 44.3219 51.9076 43.7223 53.217 43.55C54.5265 43.3776 55.8562 43.6421 57 44.3025Z" fill="white"/>
</svg>
